# xmcd
#
# Track frame offsets: 
#        150
#        22775
#        42337
#        68205
#        90890
#        120720
#        141212
#        167155
#        195277
#        218802
#        239405
#
# Disc length: 3498 seconds
#
# Revision: 2
# Processed by: cddbd v1.5.2PL0 Copyright (c) Steve Scherf et al.
# Submitted via: ExactAudioCopy v1.1
#
DISCID=8c0da80b
DTITLE=Various Artist - Intimidade[CD1]
DYEAR=2005
DGENRE=Blues
TTITLE0=Pedro Abrunhosa and Bandemónio - Mais Uma Noite a Vencer
TTITLE1=Pedro Abrunhosa and Bandemónio - Deixas em Mim Tanto de Ti
TTITLE2=Pedro Abrunhosa and Bandemónio - Sempre: O Espaço Vazio
TTITLE3=Pedro Abrunhosa and Bandemónio - Tu Não Sabes
TTITLE4=Pedro Abrunhosa and Bandemónio - Viagens | Sixteen Tons 
TTITLE5=Pedro Abrunhosa and Bandemónio - Algarve
TTITLE6=Pedro Abrunhosa and Bandemónio - Eu e Tu Somos Iguais
TTITLE7=Pedro Abrunhosa and Bandemónio - É Difícil
TTITLE8=Pedro Abrunhosa and Bandemónio - Como Uma Ilha
TTITLE9=Pedro Abrunhosa and Bandemónio - É Preciso Ter Calma
TTITLE10=Pedro Abrunhosa and Bandemónio - Será
EXTD=
EXTT0=
EXTT1=
EXTT2=
EXTT3=
EXTT4=
EXTT5=
EXTT6=
EXTT7=
EXTT8=
EXTT9=
EXTT10=
PLAYORDER=
